<?xml version="1.0" encoding="iso-8859-1"?>
<!-- Uploaded to: SVG Repo, www.svgrepo.com, Generator: SVG Repo Mixer Tools -->
<svg version="1.1" id="Layer_1" xmlns="http://www.w3.org/2000/svg" xmlns:xlink="http://www.w3.org/1999/xlink" 
	 viewBox="0 0 390.788 390.788" xml:space="preserve">
<path style="fill:#FFFFFF;" d="M21.947,317.608H45.22V186.44c0-5.947,4.848-10.861,10.861-10.861s10.861,4.848,10.861,10.861
	v131.168h24.954V186.44c0-5.947,4.848-10.861,10.861-10.861s10.861,4.848,10.861,10.861v131.168h24.889V186.44
	c0-5.947,4.848-10.861,10.861-10.861c5.947,0,10.861,4.848,10.861,10.861v131.168h24.954V186.44c0-5.947,4.848-10.861,10.861-10.861
	c5.947,0,10.861,4.848,10.861,10.861v131.168h24.954V186.44c0-5.947,4.848-10.861,10.861-10.861s10.861,4.848,10.861,10.861v131.168
	h24.954V186.44c0-5.947,4.848-10.861,10.861-10.861c5.947,0,10.861,4.848,10.861,10.861v131.168h24.954V186.44
	c0-5.947,4.848-10.861,10.861-10.861c5.948,0,10.861,4.848,10.861,10.861v131.168h23.273V155.022H23.046v162.586H21.947z"/>
<rect x="43.669" y="176.679" style="fill:#56ACE0;" width="303.515" height="119.208"/>
<g>
	<rect x="21.947" y="339.265" style="fill:#FFC10D;" width="346.828" height="29.285"/>
	<rect x="49.616" y="109.446" style="fill:#FFC10D;" width="25.471" height="24.372"/>
	<rect x="315.701" y="109.446" style="fill:#FFC10D;" width="25.471" height="24.372"/>
</g>
<path style="fill:#194F82;" d="M379.636,133.301h-16.808V98.069c0-5.947-4.848-10.861-10.861-10.861h-17.325l-128.388-64.97V10.861
	C206.255,4.913,201.406,0,195.394,0c-5.947,0-10.861,4.848-10.861,10.861v11.895L56.081,87.79H38.756
	c-5.947,0-10.861,4.848-10.861,10.861v35.232H11.152c-5.947,0-10.861,4.848-10.861,10.861v235.184
	c0,5.947,4.848,10.861,10.861,10.861h368.485c5.947,0,10.861-4.848,10.861-10.861V144.162
	C390.497,138.214,385.648,133.301,379.636,133.301z M315.701,109.446h25.471v24.372h-25.471V109.446z M184.533,47.127v0.517
	c0,5.947,4.848,10.861,10.861,10.861c5.947,0,10.861-4.848,10.861-10.861v-0.517l89.406,44.994
	c-1.099,1.616-2.198,3.814-2.198,5.947v35.232H96.743V98.069c0-2.198-0.517-4.331-2.198-5.947L184.533,47.127z M49.616,109.446
	h25.471v24.372H49.616V109.446z M368.84,368.549H21.947v-29.285h346.828v29.285H368.84z M368.84,317.608h-23.273V186.44
	c0-5.947-4.848-10.861-10.861-10.861c-5.947,0-10.861,4.848-10.861,10.861v131.168h-24.954V186.44
	c0-5.947-4.848-10.861-10.861-10.861s-10.861,4.848-10.861,10.861v131.168h-24.889V186.44c0-5.947-4.848-10.861-10.861-10.861
	c-6.012,0-10.861,4.848-10.861,10.861v131.168h-24.954V186.44c0-5.947-4.848-10.861-10.861-10.861
	c-5.947,0-10.861,4.848-10.861,10.861v131.168h-24.954V186.44c0-5.947-4.848-10.861-10.861-10.861
	c-6.012,0-10.861,4.848-10.861,10.861v131.168h-24.954V186.44c0-5.947-4.848-10.861-10.861-10.861s-10.861,4.848-10.861,10.861
	v131.168H65.584V186.44c0-5.947-4.848-10.861-10.861-10.861s-10.861,4.848-10.861,10.861v131.168H21.947V155.022h346.828v162.586
	H368.84z"/>
</svg>