<?xml version="1.0" encoding="iso-8859-1"?>
<!-- Uploaded to: SVG Repo, www.svgrepo.com, Generator: SVG Repo Mixer Tools -->
<svg version="1.1" id="Layer_1" xmlns="http://www.w3.org/2000/svg" xmlns:xlink="http://www.w3.org/1999/xlink" 
	 viewBox="0 0 390.206 390.206" xml:space="preserve">
<g>
	<polygon style="fill:#FFC10D;" points="153.406,82.36 125.737,119.79 125.737,82.36 	"/>
	<polygon style="fill:#FFC10D;" points="160.97,217.859 126.255,265.051 126.255,180.493 	"/>
	<rect x="126.255" y="21.657" style="fill:#FFC10D;" width="37.947" height="39.564"/>
	<polygon style="fill:#FFC10D;" points="129.552,151.725 164.202,104.598 164.202,189.156 	"/>
	<polygon style="fill:#FFC10D;" points="129.552,296.986 164.202,249.859 164.202,334.416 	"/>
	<polygon style="fill:#FFC10D;" points="126.255,325.689 164.202,366.352 164.202,368.549 126.255,368.549 	"/>
</g>
<g>
	<rect x="21.657" y="82.941" style="fill:#56ACE0;" width="41.18" height="77.511"/>
	<path style="fill:#56ACE0;" d="M266.085,222.772c-5.947,0-10.861,4.848-10.861,10.861v78.028c0,5.948,4.848,10.861,10.861,10.861
		h78.028c5.947,0,10.861-4.848,10.861-10.861v-78.093c0-5.947-4.848-10.861-10.861-10.861h-78.028V222.772z"/>
</g>
<path style="fill:#194F82;" d="M379.345,61.22h-70.982L178.812,1.099c0-0.517-3.232-1.099-4.331-1.099h-59.604
	c-4.331,0-8.145,2.715-9.762,5.947L5.43,62.319C2.198,64.517,0,67.749,0,71.564l0,0v99.168c0,5.947,4.848,10.861,10.861,10.861
	h62.836c5.947,0,10.861-4.848,10.861-10.861v-87.79h19.523v296.404c0,5.947,4.848,10.861,10.861,10.861h59.604
	c5.947,0,10.861-4.848,10.861-10.861V82.941h110.028v118.691H266.15c-17.907,0-32.517,14.61-32.517,32.517v78.028
	c0,17.907,14.61,32.517,32.517,32.517h78.028c17.907,0,32.517-14.61,32.517-32.517v-78.61c0-17.907-14.61-32.517-32.517-32.517
	h-27.087V82.941h62.255c5.947,0,10.861-4.848,10.861-10.861S385.358,61.22,379.345,61.22z M62.836,159.871h-41.18V82.941h41.18
	V159.871z M104.081,61.22H52.04l52.04-29.285V61.22z M125.737,119.79V82.424h27.669L125.737,119.79z M164.202,104.598v84.558
	l-34.715-37.366L164.202,104.598z M160.97,217.859l-34.715,47.127v-84.493L160.97,217.859z M164.202,249.859v84.558l-34.715-37.366
	L164.202,249.859z M164.202,366.352v2.198h-37.947v-42.861L164.202,366.352z M164.202,61.22h-37.947V21.657h37.947V61.22z
	 M185.859,61.22V27.604l71.564,33.616H185.859z M354.974,233.568v78.028c0,5.947-4.848,10.861-10.861,10.861h-78.028
	c-5.947,0-10.861-4.848-10.861-10.861v-78.028c0-5.947,4.848-10.861,10.861-10.861h78.028
	C350.125,222.772,354.974,227.62,354.974,233.568z"/>
</svg>