<svg xmlns="http://www.w3.org/2000/svg" xmlns:xlink="http://www.w3.org/1999/xlink" height="390.51300048828125" width="390.51300048828125" version="1.1" xml:space="preserve"><rect id="backgroundrect" width="100%" height="100%" x="0" y="0" fill="none" stroke="none"/>





<g class="currentLayer" style=""><title>Layer 1</title><path style="fill:#FFC10D;" d="M43.648,369.72656518888476 h24.372 V202.22756518888474 c0,-17.907 14.61,-32.517 32.517,-32.517 h189.673 c17.907,0 32.517,14.61 32.517,32.517 v167.499 h23.855 V138.80856518888473 H43.648 V369.72656518888476 z" id="svg_1" class=""/><path style="fill:#FFFFFF;" d="M289.11,296.776v72.081h11.895V201.358c0-5.947-4.848-10.861-10.861-10.861H100.537  c-5.947,0-10.861,4.848-10.861,10.861v167.499h12.477v-72.081c0-5.947,4.848-10.861,10.861-10.861h165.818  C284.262,285.915,289.11,290.828,289.11,296.776z" id="svg_2"/><g id="svg_3">
	<path style="fill:#FFC10D;" d="M165.054,316.816c0,5.947-4.848,10.861-10.861,10.861c-6.012,0-10.861-4.848-10.861-10.861v-9.244   h-19.523v61.22h61.22v-61.22h-19.523v9.244H165.054z" id="svg_4"/>
	<path style="fill:#FFC10D;" d="M247.413,316.816c0,5.947-4.848,10.861-10.861,10.861c-5.947,0-10.861-4.848-10.861-10.861v-9.244   h-19.523v61.22h61.22v-61.22h-19.523v9.244H247.413z" id="svg_5"/>
</g><polygon style="fill:#56ACE0;" points="21.926,89.196 21.926,116.283 368.819,116.283 368.819,89.196 195.373,22.545 " id="svg_6"/><path style="fill:#194F82;" d="M383.429,71.871 L199.187,0.8240000000000002 c-2.715,-1.099 -5.43,-1.099 -7.564,0 L7.381,71.806 c-4.331,1.616 -7.046,5.43 -7.046,10.279 v44.994 c0,5.947 4.848,10.861 10.861,10.861 h10.861 v241.713 c0,5.947 4.848,10.861 10.861,10.861 h324.655 c5.947,0 10.861,-4.848 10.861,-10.861 V137.939 h10.861 c5.947,0 10.861,-4.848 10.861,-10.861 V82.085 C390.476,77.236 387.761,73.487 383.429,71.871 zM368.819,116.283 H21.926 v-26.57 l173.446,-66.651 l173.446,66.651 V116.283 zM267.454,368.857 h-61.22 v-61.22 h19.523 v9.244 c0,5.948 4.848,10.861 10.861,10.861 c5.947,0 10.861,-4.849 10.861,-10.861 v-9.244 h19.523 v61.22 H267.454 zM184.512,368.857 h-61.22 v-61.22 h19.523 v9.244 c0,5.948 4.848,10.861 10.861,10.861 c6.012,0 10.861,-4.849 10.861,-10.861 v-9.244 h19.523 v61.22 H184.512 zM101.636,296.776 v72.081 H89.741 V201.358 c0,-5.947 4.848,-10.861 10.861,-10.861 h189.673 c5.948,0 10.861,4.848 10.861,10.861 v167.499 h-12.477 v-72.081 c0,-5.947 -4.848,-10.861 -10.861,-10.861 H112.431 C106.484,285.915 101.636,290.828 101.636,296.776 zM347.098,368.857 h-24.372 V201.358 c0,-17.907 -14.61,-32.517 -32.517,-32.517 H100.537 c-17.907,0 -32.517,14.61 -32.517,32.517 v167.499 H43.648 V137.939 h302.933 v230.853 h0.517 V368.857 z" id="svg_7" class="selected"/><rect fill="#ffb200" stroke="#ffb200" stroke-width="2" stroke-linejoin="round" stroke-dashoffset="" fill-rule="nonzero" id="svg_8" x="61" y="159.86956787109375" width="269" height="208.2608642578125" style="color: rgb(0, 0, 0);" class="" fill-opacity="1" stroke-opacity="1"/><rect fill="#60b3ed" stroke-dashoffset="" fill-rule="nonzero" id="svg_11" x="72" y="173" width="71" height="68" style="color: rgb(255, 178, 0);" class="" fill-opacity="1" stroke-width="20" stroke="#1e5489" stroke-opacity="1"/><rect fill="#60b3ed" stroke-dashoffset="" fill-rule="nonzero" x="246.7825927734375" y="173.86956787109375" width="71" height="68" style="color: rgb(255, 178, 0);" class="" fill-opacity="1" stroke-width="20" stroke="#1e5489" stroke-opacity="1" id="svg_14"/></g></svg>